<mxfile host="app.diagrams.net" agent="Mozilla/5.0 (X11; Ubuntu; Linux x86_64; rv:131.0) Gecko/20100101 Firefox/131.0" version="24.8.0">
  <diagram name="Page-1" id="sr-PQ2nVhzND1-6W9piC">
    <mxGraphModel dx="2284" dy="719" grid="1" gridSize="10" guides="1" tooltips="1" connect="1" arrows="1" fold="1" page="1" pageScale="1" pageWidth="850" pageHeight="1100" math="0" shadow="0">
      <root>
        <mxCell id="0" />
        <mxCell id="1" parent="0" />
        <mxCell id="EHR21fEA4jb7fuCGGEDM-17" value="Public subnet" style="points=[[0,0],[0.25,0],[0.5,0],[0.75,0],[1,0],[1,0.25],[1,0.5],[1,0.75],[1,1],[0.75,1],[0.5,1],[0.25,1],[0,1],[0,0.75],[0,0.5],[0,0.25]];outlineConnect=0;gradientColor=none;html=1;whiteSpace=wrap;fontSize=12;fontStyle=0;container=1;pointerEvents=0;collapsible=0;recursiveResize=0;shape=mxgraph.aws4.group;grIcon=mxgraph.aws4.group_security_group;grStroke=0;strokeColor=#7AA116;fillColor=#F2F6E8;verticalAlign=top;align=left;spacingLeft=30;fontColor=#248814;dashed=0;" vertex="1" parent="1">
          <mxGeometry x="615" y="390" width="320" height="260" as="geometry" />
        </mxCell>
        <mxCell id="EHR21fEA4jb7fuCGGEDM-16" value="Amazon EKS" style="sketch=0;outlineConnect=0;fontColor=#232F3E;gradientColor=none;strokeColor=#ffffff;fillColor=#232F3E;dashed=0;verticalLabelPosition=middle;verticalAlign=bottom;align=center;html=1;whiteSpace=wrap;fontSize=10;fontStyle=1;spacing=3;shape=mxgraph.aws4.productIcon;prIcon=mxgraph.aws4.eks;" vertex="1" parent="1">
          <mxGeometry x="735" y="470" width="80" height="100" as="geometry" />
        </mxCell>
        <mxCell id="EHR21fEA4jb7fuCGGEDM-15" value="&lt;div&gt;&lt;b&gt;1-Jenkins file: pipeline script&amp;nbsp;&lt;/b&gt;&lt;/div&gt;&lt;div&gt;&lt;b&gt;2-terrafrom: Terrafrom files (configuration branch)&lt;/b&gt;&lt;/div&gt;&lt;b&gt;&lt;br&gt;3-Ansible: Ansile playbook (configuration branch)&lt;br&gt;&lt;br&gt;4-webapp: Index.HTML&lt;br&gt;&lt;br&gt;5:Docker file&lt;/b&gt;" style="rounded=0;whiteSpace=wrap;html=1;" vertex="1" parent="1">
          <mxGeometry x="-280" y="200" width="420" height="238" as="geometry" />
        </mxCell>
        <mxCell id="EHR21fEA4jb7fuCGGEDM-3" value="Public subnet" style="points=[[0,0],[0.25,0],[0.5,0],[0.75,0],[1,0],[1,0.25],[1,0.5],[1,0.75],[1,1],[0.75,1],[0.5,1],[0.25,1],[0,1],[0,0.75],[0,0.5],[0,0.25]];outlineConnect=0;gradientColor=none;html=1;whiteSpace=wrap;fontSize=12;fontStyle=0;container=1;pointerEvents=0;collapsible=0;recursiveResize=0;shape=mxgraph.aws4.group;grIcon=mxgraph.aws4.group_security_group;grStroke=0;strokeColor=#7AA116;fillColor=#F2F6E8;verticalAlign=top;align=left;spacingLeft=30;fontColor=#248814;dashed=0;" vertex="1" parent="1">
          <mxGeometry x="220" y="200" width="320" height="260" as="geometry" />
        </mxCell>
        <mxCell id="EHR21fEA4jb7fuCGGEDM-1" value="EC2 instance contents" style="points=[[0,0],[0.25,0],[0.5,0],[0.75,0],[1,0],[1,0.25],[1,0.5],[1,0.75],[1,1],[0.75,1],[0.5,1],[0.25,1],[0,1],[0,0.75],[0,0.5],[0,0.25]];outlineConnect=0;gradientColor=none;html=1;whiteSpace=wrap;fontSize=12;fontStyle=0;container=1;pointerEvents=0;collapsible=0;recursiveResize=0;shape=mxgraph.aws4.group;grIcon=mxgraph.aws4.group_ec2_instance_contents;strokeColor=#D86613;fillColor=none;verticalAlign=top;align=left;spacingLeft=30;fontColor=#D86613;dashed=0;" vertex="1" parent="EHR21fEA4jb7fuCGGEDM-3">
          <mxGeometry x="45" y="60" width="210" height="130" as="geometry" />
        </mxCell>
        <mxCell id="EHR21fEA4jb7fuCGGEDM-4" value="" style="image;html=1;image=img/lib/clip_art/computers/Server_128x128.png" vertex="1" parent="EHR21fEA4jb7fuCGGEDM-1">
          <mxGeometry x="35" y="40" width="45" height="60" as="geometry" />
        </mxCell>
        <mxCell id="EHR21fEA4jb7fuCGGEDM-5" value="&lt;b&gt;&lt;font style=&quot;font-size: 14px;&quot;&gt;Jenkins Server&lt;/font&gt;&lt;/b&gt;" style="whiteSpace=wrap;html=1;aspect=fixed;" vertex="1" parent="EHR21fEA4jb7fuCGGEDM-1">
          <mxGeometry x="85" y="35" width="70" height="70" as="geometry" />
        </mxCell>
        <mxCell id="EHR21fEA4jb7fuCGGEDM-8" style="edgeStyle=orthogonalEdgeStyle;rounded=0;orthogonalLoop=1;jettySize=auto;html=1;entryX=0.5;entryY=0;entryDx=0;entryDy=0;" edge="1" parent="1" target="EHR21fEA4jb7fuCGGEDM-17">
          <mxGeometry relative="1" as="geometry">
            <mxPoint x="130" y="365" as="sourcePoint" />
            <mxPoint x="585" y="390" as="targetPoint" />
          </mxGeometry>
        </mxCell>
        <mxCell id="EHR21fEA4jb7fuCGGEDM-9" value="" style="verticalLabelPosition=bottom;shadow=0;dashed=0;align=center;html=1;verticalAlign=top;strokeWidth=1;shape=mxgraph.mockup.misc.playbackControls;sketch=0;strokeColor=#999999;fillColor2=#99ddff;strokeColor2=none;fillColor3=#ffffff;strokeColor3=none;" vertex="1" parent="1">
          <mxGeometry x="-190" y="560" width="250" height="30" as="geometry" />
        </mxCell>
        <mxCell id="EHR21fEA4jb7fuCGGEDM-13" style="edgeStyle=orthogonalEdgeStyle;rounded=0;orthogonalLoop=1;jettySize=auto;html=1;" edge="1" parent="1" target="EHR21fEA4jb7fuCGGEDM-5">
          <mxGeometry relative="1" as="geometry">
            <mxPoint x="60" y="540" as="sourcePoint" />
          </mxGeometry>
        </mxCell>
        <mxCell id="EHR21fEA4jb7fuCGGEDM-11" value="&lt;div&gt;&lt;font style=&quot;font-size: 14px;&quot;&gt;&lt;b&gt;Ansible Playbook&lt;/b&gt;&lt;/font&gt;&lt;/div&gt;&lt;div&gt;&lt;font size=&quot;3&quot;&gt;Inventory: IP . Private Key SSH&lt;/font&gt;&lt;br&gt;&lt;/div&gt;" style="whiteSpace=wrap;html=1;" vertex="1" parent="1">
          <mxGeometry x="-190" y="500" width="250" height="60" as="geometry" />
        </mxCell>
        <mxCell id="EHR21fEA4jb7fuCGGEDM-2" value="" style="shape=image;html=1;verticalAlign=top;verticalLabelPosition=bottom;labelBackgroundColor=#ffffff;imageAspect=0;aspect=fixed;image=https://cdn4.iconfinder.com/data/icons/ionicons/512/icon-social-github-128.png" vertex="1" parent="1">
          <mxGeometry x="-94" y="200" width="58" height="58" as="geometry" />
        </mxCell>
      </root>
    </mxGraphModel>
  </diagram>
</mxfile>
